HIERARCHY
ROOT Hips
{
	OFFSET -0.001795 -0.223333 0.028219
	CHANNELS 6 Xposition Yposition Zposition Zrotation Yrotation Xrotation 
	JOINT LeftUpLeg
	{
		OFFSET 0.069520 -0.091406 -0.006815
		CHANNELS 3 Zrotation Yrotation Xrotation
		JOINT LeftLeg
		{
			OFFSET 0.034277 -0.375199 -0.004496
			CHANNELS 3 Zrotation Yrotation Xrotation
			JOINT LeftFoot
			{
				OFFSET -0.013596 -0.397961 -0.043693
				CHANNELS 3 Zrotation Yrotation Xrotation
				JOINT LeftToe
				{
					OFFSET 0.026358 -0.055791 0.119288
					CHANNELS 3 Zrotation Yrotation Xrotation
					End Site
					{
						OFFSET 0.000000 0.000000 0.000000
					}
				}
			}
		}
	}
	JOINT RightUpLeg
	{
		OFFSET -0.067670 -0.090522 -0.004320
		CHANNELS 3 Zrotation Yrotation Xrotation
		JOINT RightLeg
		{
			OFFSET -0.038290 -0.382569 -0.008850
			CHANNELS 3 Zrotation Yrotation Xrotation
			JOINT RightFoot
			{
				OFFSET 0.015774 -0.398415 -0.042312
				CHANNELS 3 Zrotation Yrotation Xrotation
				JOINT RightToe
				{
					OFFSET -0.025372 -0.048144 0.123348
					CHANNELS 3 Zrotation Yrotation Xrotation
					End Site
					{
						OFFSET 0.000000 0.000000 0.000000
					}
				}
			}
		}
	}
	JOINT Spine
	{
		OFFSET -0.002533 0.108963 -0.026696
		CHANNELS 3 Zrotation Yrotation Xrotation
		JOINT Spine1
		{
			OFFSET 0.005487 0.135180 0.001092
			CHANNELS 3 Zrotation Yrotation Xrotation
			JOINT Spine2
			{
				OFFSET 0.001457 0.052922 0.025425
				CHANNELS 3 Zrotation Yrotation Xrotation
				JOINT Neck
				{
					OFFSET -0.002778 0.213870 -0.042857
					CHANNELS 3 Zrotation Yrotation Xrotation
					JOINT Head
					{
						OFFSET 0.005152 0.064970 0.051349
						CHANNELS 3 Zrotation Yrotation Xrotation
						End Site
						{
							OFFSET 0.000000 0.000000 0.000000
						}
					}
				}
				JOINT LeftShoulder
				{
					OFFSET 0.078845 0.121749 -0.034090
					CHANNELS 3 Zrotation Yrotation Xrotation
					JOINT LeftArm
					{
						OFFSET 0.090977 0.030469 -0.008868
						CHANNELS 3 Zrotation Yrotation Xrotation
						JOINT LeftForeArm
						{
							OFFSET 0.259612 -0.012772 -0.027456
							CHANNELS 3 Zrotation Yrotation Xrotation
							JOINT LeftHand
							{
								OFFSET 0.249234 0.008986 -0.001171
								CHANNELS 3 Zrotation Yrotation Xrotation
								End Site
								{
									OFFSET 0.000000 0.000000 0.000000
								}
							}
						}
					}
				}
				JOINT RightShoulder
				{
					OFFSET -0.081759 0.118833 -0.038615
					CHANNELS 3 Zrotation Yrotation Xrotation
					JOINT RightArm
					{
						OFFSET -0.096012 0.032551 -0.009143
						CHANNELS 3 Zrotation Yrotation Xrotation
						JOINT RightForeArm
						{
							OFFSET -0.253742 -0.013329 -0.021401
							CHANNELS 3 Zrotation Yrotation Xrotation
							JOINT RightHand
							{
								OFFSET -0.255298 0.007772 -0.005559
								CHANNELS 3 Zrotation Yrotation Xrotation
								End Site
								{
									OFFSET 0.000000 0.000000 0.000000
								}
							}
						}
					}
				}
			}
		}
	}
}
MOTION
Frames: 13
Frame Time: 0.050000
0.293033 0.973591 1.723142 -3.942983 6.394796 -6.879192 2.760330 0.365305 7.236760 -1.304637 -0.788349 21.911290 3.986120 10.648583 8.116793 0.000000 0.000000 0.000000 3.688140 1.989424 -15.651608 1.747239 -0.221316 31.378129 -2.977705 -9.626322 10.861566 0.000000 0.000000 0.000000 -2.812696 -0.449562 15.452966 10.180305 -1.541324 -27.678906 -6.850913 -8.996137 35.938524 -5.622542 3.871261 -33.261179 0.000000 0.000000 0.000000 -29.548348 13.814785 -9.017213 -41.059271 -3.107645 -7.167955 -126.019080 -44.723106 89.642745 0.000000 0.000000 0.000000 11.477484 -2.008044 -2.078714 52.584010 -8.565280 -12.025203 121.832780 48.188473 81.217604 0.000000 0.000000 0.000000 
0.297012 0.988093 1.809220 -3.521445 6.922925 -7.479220 4.299132 0.002012 1.243180 -3.117462 -1.001387 34.619795 3.610295 10.387338 9.425978 0.000000 0.000000 0.000000 5.667771 1.418708 -9.511001 0.368641 0.320487 23.059786 -0.756513 -6.096453 14.621440 0.000000 0.000000 0.000000 -3.520023 -0.308004 13.125070 7.994824 -1.020432 -27.851194 -4.032018 -8.282370 36.559457 -4.341218 3.379868 -30.553221 0.000000 0.000000 0.000000 -29.437598 13.357522 -9.076712 -40.167819 -1.170904 -7.576985 -124.550357 -42.324825 83.479045 0.000000 0.000000 0.000000 10.156177 -3.556339 -2.408828 55.081244 -10.315879 -13.506759 124.382685 47.759946 85.367541 0.000000 0.000000 0.000000 
0.301584 0.988860 1.890246 -2.866661 7.390345 -8.393819 5.153811 -0.297308 -5.282086 -4.608261 -0.829182 40.977364 5.206713 12.446572 6.931056 0.000000 0.000000 0.000000 6.192677 0.300866 -1.748244 -0.410041 0.531697 19.955509 -1.114075 -6.489403 13.606082 0.000000 0.000000 0.000000 -4.343664 -0.254492 13.557239 7.477938 -0.913776 -27.712543 -2.523213 -5.477224 35.551582 -1.617183 2.381812 -29.736934 0.000000 0.000000 0.000000 -28.175309 13.117468 -9.797513 -39.618869 2.219420 -8.032004 -123.614559 -41.073216 78.176865 0.000000 0.000000 0.000000 10.653345 -4.185274 -2.345204 55.846563 -8.257749 -12.601549 129.201409 47.805865 94.624537 0.000000 0.000000 0.000000 
0.308475 0.988003 1.966473 -2.516042 5.971244 -8.988843 6.386481 -0.432947 -10.129687 -4.833868 -0.123021 33.694870 7.926998 17.273820 9.400844 0.000000 0.000000 0.000000 6.150266 -0.681629 4.356581 -1.428059 0.930457 20.153236 0.009145 -4.007384 11.400397 0.000000 0.000000 0.000000 -5.357087 -0.141330 13.292623 7.128788 -0.892109 -27.245470 0.088153 -0.999566 35.059597 -0.443481 2.459293 -30.613368 0.000000 0.000000 0.000000 -27.702170 13.259115 -11.083456 -38.127617 4.597384 -7.929124 -122.695676 -39.934787 72.784682 0.000000 0.000000 0.000000 9.853272 -3.736346 -1.642951 58.584841 -3.871311 -10.868029 131.676841 49.675146 104.619436 0.000000 0.000000 0.000000 
0.318723 0.993587 2.039903 -3.193366 5.303163 -9.480014 6.895126 -0.413464 -11.126330 -2.392466 -0.177997 15.951618 5.624594 14.540220 14.389914 0.000000 0.000000 0.000000 6.177550 -1.537869 9.469205 -1.297955 0.937014 20.447957 0.857425 -2.666609 12.139797 0.000000 0.000000 0.000000 -5.355616 -0.139446 12.790038 5.701076 -0.568014 -27.280314 3.066065 1.372595 35.233984 -0.278203 2.801017 -31.084501 0.000000 0.000000 0.000000 -25.762563 14.268338 -11.928025 -38.078319 5.670938 -8.016225 -121.789877 -37.677057 66.887815 0.000000 0.000000 0.000000 8.653983 -2.809929 -0.966542 60.102927 2.830136 -7.613490 132.836541 52.011077 112.036048 0.000000 0.000000 0.000000 
0.332486 0.996791 2.112941 -2.888132 3.825062 -10.133575 6.432920 -0.416534 -11.142205 -1.651516 0.133993 1.757447 2.861329 12.379434 24.359045 0.000000 0.000000 0.000000 4.397350 -1.519910 10.480674 0.046451 0.740982 26.617780 3.043291 -0.347237 16.395578 0.000000 0.000000 0.000000 -6.379469 -0.045107 11.624458 5.869254 -0.799150 -24.727588 3.983929 4.318321 33.702732 1.576003 2.133885 -30.635996 0.000000 0.000000 0.000000 -22.985759 14.826412 -12.018687 -40.027943 7.642965 -8.751565 -119.503451 -36.167036 60.848212 0.000000 0.000000 0.000000 6.976337 -0.865581 -0.051426 61.096243 8.016181 -4.405205 134.363528 52.998565 116.753796 0.000000 0.000000 0.000000 
0.347639 0.984435 2.184319 -2.744371 2.829002 -11.818285 5.022660 -0.481243 -10.446554 -1.473953 0.113856 1.913186 1.780585 10.966076 24.812272 0.000000 0.000000 0.000000 1.668769 -0.913457 7.741839 1.609708 0.393945 40.977458 3.779974 0.235402 17.537760 0.000000 0.000000 0.000000 -8.239405 0.104128 13.216184 5.723913 -0.724901 -25.708121 6.182946 3.995279 34.417097 1.313733 2.121031 -30.600518 0.000000 0.000000 0.000000 -22.640795 14.163982 -11.170730 -39.616874 8.320816 -8.990290 -118.212900 -36.373203 60.409693 0.000000 0.000000 0.000000 6.754734 0.597021 0.484772 59.001413 12.184049 -2.492620 137.578437 51.890846 119.575518 0.000000 0.000000 0.000000 
0.361118 0.961483 2.248158 -2.588933 2.668391 -12.724120 4.633607 -0.532499 -10.877721 -2.483884 0.081465 10.312420 3.654314 12.354992 19.546429 0.000000 0.000000 0.000000 -1.102420 -0.153065 1.440328 3.155014 -0.471350 55.252451 2.360514 -2.686780 18.381865 0.000000 0.000000 0.000000 -8.718358 0.157014 14.473019 6.909798 -1.061833 -25.377479 4.417547 3.334566 33.672330 0.835240 2.305584 -32.397996 0.000000 0.000000 0.000000 -23.282013 13.070957 -10.368753 -37.495077 7.578904 -8.353705 -117.410382 -38.474400 63.080033 0.000000 0.000000 0.000000 9.866276 2.379300 1.304789 55.187000 13.702850 -2.152590 139.102851 52.722147 121.267207 0.000000 0.000000 0.000000 
0.371752 0.949801 2.298755 -2.407208 1.811231 -13.773878 5.143234 -0.369601 -9.288009 -3.632955 0.264844 15.635275 4.844787 13.225731 15.589103 0.000000 0.000000 0.000000 -2.332563 0.341182 -4.739691 3.188976 -0.157065 60.106752 -1.652032 -8.614790 14.397197 0.000000 0.000000 0.000000 -8.156912 0.163420 16.853760 6.807989 -1.015406 -25.998934 2.808291 2.142587 34.028658 0.402890 2.330380 -34.925079 0.000000 0.000000 0.000000 -25.675592 9.524184 -8.140868 -36.580483 4.521555 -7.580238 -116.769732 -44.522049 72.201402 0.000000 0.000000 0.000000 12.905537 3.553911 1.738789 54.228192 14.144486 -2.285379 134.411009 54.086852 114.072570 0.000000 0.000000 0.000000 
0.380302 0.959736 2.339912 -2.407279 1.309360 -13.699080 4.944845 -0.197277 -5.734911 -4.222848 0.442755 13.998032 5.767880 14.362383 14.448540 0.000000 0.000000 0.000000 -2.323261 0.732550 -9.652840 3.422077 -0.148829 54.190918 -4.601377 -13.364966 11.226638 0.000000 0.000000 0.000000 -7.163279 0.100560 18.580186 6.139216 -0.775082 -27.049858 1.548734 0.013254 34.221792 -0.925585 2.591000 -35.195348 0.000000 0.000000 0.000000 -26.861706 6.117329 -5.330608 -38.327883 -0.376867 -6.912757 -114.452339 -49.415153 77.931910 0.000000 0.000000 0.000000 14.402358 4.296876 1.727139 53.055634 11.999572 -3.371959 131.880136 54.940406 109.251588 0.000000 0.000000 0.000000 
0.387160 0.974750 2.376379 -2.228638 1.051639 -12.931298 4.131619 -0.051488 -2.117263 -3.851925 0.390235 10.745794 5.321424 13.648464 14.100432 0.000000 0.000000 0.000000 -2.271571 0.995945 -12.822434 3.179548 0.003631 42.041065 -5.060358 -14.115029 10.791742 0.000000 0.000000 0.000000 -6.075966 -0.007376 19.124089 6.180253 -0.736367 -27.637587 -0.299656 -2.477254 34.122128 -1.139908 2.251477 -36.008613 0.000000 0.000000 0.000000 -28.863117 4.640756 -3.685650 -39.506163 -5.523655 -5.912455 -116.304352 -52.193498 85.272875 0.000000 0.000000 0.000000 14.368294 3.735443 0.956174 52.076740 8.877120 -4.637079 129.946466 52.481287 100.927316 0.000000 0.000000 0.000000 
0.391608 0.987127 2.411942 -2.103871 1.787342 -12.713925 3.086029 0.141684 1.615131 -2.805007 0.215722 7.270911 4.763082 12.909251 14.144704 0.000000 0.000000 0.000000 -2.676232 0.912624 -12.517363 3.222557 -0.191680 27.368674 -3.931025 -12.302370 13.256117 0.000000 0.000000 0.000000 -5.156423 -0.151527 19.525774 6.334595 -0.711939 -28.330246 -1.944239 -5.137409 34.537363 -2.525678 2.556261 -36.251747 0.000000 0.000000 0.000000 -28.605284 2.745861 -1.545588 -41.596874 -11.700042 -4.535066 -121.734016 -53.882603 95.901200 0.000000 0.000000 0.000000 13.289439 2.835372 0.204655 50.581782 5.147823 -6.081241 130.271278 49.893915 95.747016 0.000000 0.000000 0.000000 
0.393085 0.990632 2.448032 -1.609143 2.077204 -11.634443 2.324379 0.348744 4.784908 -2.217208 0.168424 4.329704 4.629312 12.618666 13.484975 0.000000 0.000000 0.000000 -1.816723 0.966686 -11.876224 2.181611 0.025701 16.626429 -2.542947 -10.320983 16.172923 0.000000 0.000000 0.000000 -4.561743 -0.216244 18.699159 6.579220 -0.791974 -27.813478 -3.740080 -7.300556 33.522896 -2.653384 2.266180 -36.065563 0.000000 0.000000 0.000000 -28.714583 1.650685 -0.167284 -43.084457 -16.415345 -3.092327 -129.089816 -55.743810 109.250532 0.000000 0.000000 0.000000 13.011485 2.274615 -0.432763 48.163481 2.057065 -6.767627 133.606112 48.019509 95.287738 0.000000 0.000000 0.000000 
